<?xml version="1.0" encoding="UTF-8" standalone="no"?>
<!-- Generator: Adobe Illustrator 28.0.0, SVG Export Plug-In . SVG Version: 6.00 Build 0)  -->

<svg
   version="1.1"
   x="0px"
   y="0px"
   viewBox="0 0 163.8 163.8"
   style="enable-background:new 0 0 163.8 163.8;"
   xml:space="preserve"
   id="svg22"
   sodipodi:docname="bg-separatist — копия.svg"
   inkscape:version="1.4.2 (f4327f4, 2025-05-13)"
   xmlns:inkscape="http://www.inkscape.org/namespaces/inkscape"
   xmlns:sodipodi="http://sodipodi.sourceforge.net/DTD/sodipodi-0.dtd"
   xmlns:xlink="http://www.w3.org/1999/xlink"
   xmlns="http://www.w3.org/2000/svg"
   xmlns:svg="http://www.w3.org/2000/svg"><defs
   id="defs22"><linearGradient
     inkscape:collect="always"
     xlink:href="#swatch9"
     id="linearGradient9"
     x1="-180.33325"
     y1="387.84305"
     x2="797.98737"
     y2="387.84305"
     gradientUnits="userSpaceOnUse"
     gradientTransform="matrix(0.14691781,0,0,0.19583054,40.429669,6.775796)" /><linearGradient
     id="swatch9"
     inkscape:swatch="solid"><stop
       style="stop-color:#7f7f7f;stop-opacity:1;"
       offset="0"
       id="stop9" /></linearGradient></defs><sodipodi:namedview
   id="namedview22"
   pagecolor="#ffffff"
   bordercolor="#000000"
   borderopacity="0.25"
   inkscape:showpageshadow="2"
   inkscape:pageopacity="0.0"
   inkscape:pagecheckerboard="0"
   inkscape:deskcolor="#d1d1d1"
   inkscape:zoom="3.5182663"
   inkscape:cx="115.25563"
   inkscape:cy="61.53599"
   inkscape:window-width="1920"
   inkscape:window-height="1017"
   inkscape:window-x="-8"
   inkscape:window-y="-8"
   inkscape:window-maximized="1"
   inkscape:current-layer="svg22" />
<style
   type="text/css"
   id="style1">
	.st0{opacity:0.23;}
	.st1{opacity:0.23;fill:#333333;}
	.st2{opacity:0.23;fill:#606060;}
	.st3{opacity:0.23;fill:#474747;}
</style>
<g
   id="svg1537">
</g>

<path
   style="fill:url(#linearGradient9);stroke-width:0.16962"
   d="m 23.261578,143.6523 c -0.353422,-0.0761 -0.950313,-0.55905 -1.326411,-1.07325 -0.64292,-0.879 -0.663389,-1.06926 -0.341896,-3.18259 1.096778,-7.20949 1.501348,-25.77344 0.683951,-31.38424 -0.187907,-1.29007 -0.338333,-2.77522 -0.334218,-3.30035 0.004,-0.52512 -0.129206,-3.57564 -0.296191,-6.778914 -0.403155,-7.73172 -0.418844,-7.37279 0.394339,-9.02309 l 0.712981,-1.44696 -0.616754,-1.90617 c -0.339216,-1.04839 -0.997686,-2.79865 -1.463256,-3.88945 -2.093606,-4.90524 -2.193096,-5.30733 -2.219814,-8.972236 -0.02207,-3.010672 -0.139158,-3.773468 -0.846602,-5.50955 -1.124605,-2.759832 -2.416887,-8.035181 -2.740229,-11.186294 -0.04381,-0.427108 -0.164386,-1.038643 -0.267892,-1.358969 -0.103479,-0.320326 -0.321772,-2.067563 -0.485082,-3.882756 -0.293712,-3.264909 -0.288387,-3.311802 0.49518,-4.368096 0.435636,-0.587264 0.938035,-1.06776 1.116448,-1.06776 0.178453,0 0.691183,-0.436804 1.139463,-0.970687 0.448281,-0.533876 0.914071,-0.970687 1.0351,-0.970687 0.12101,0 0.841151,-0.365183 1.600261,-0.811521 1.927384,-1.13321 2.429597,-1.397438 3.723049,-1.958745 0.623482,-0.270561 1.133626,-0.631559 1.133626,-0.802211 0,-0.170653 0.203502,-0.310279 0.452268,-0.310279 0.248734,0 1.234979,-0.347694 2.191674,-0.772667 0.956655,-0.42496 2.932409,-0.927761 4.390513,-1.117342 2.118062,-0.275377 2.889058,-0.55647 3.834499,-1.397992 1.391394,-1.238489 3.299207,-1.897233 3.836367,-1.324658 0.251765,0.268357 1.023532,0.139711 2.461327,-0.410264 1.264927,-0.483838 2.979775,-0.806684 4.329247,-0.815039 2.474989,-0.01531 4.806631,-0.640982 7.020954,-1.883985 1.568178,-0.880278 4.538678,-1.110868 5.340766,-0.414597 0.380174,0.330008 0.294657,0.568954 -0.529023,1.478369 -0.540365,0.596601 -0.982988,1.246738 -0.983593,1.444737 0,0.197999 -0.612799,0.683065 -1.360355,1.07794 -1.565791,0.827059 -1.834661,1.538496 -0.378757,1.002191 0.539275,-0.198645 1.0183,-0.361174 1.064562,-0.361174 0.0462,0 0.783228,-0.888661 1.637834,-1.974795 1.979243,-2.515558 2.630825,-2.836171 4.432015,-2.180839 0.901612,0.328049 1.972908,0.415404 2.980319,0.243024 4.149857,-0.710082 12.275326,0.435344 12.153412,1.713242 -0.207451,2.174598 0.576781,3.092578 2.350143,2.751014 1.206958,-0.232472 1.490253,-0.125044 2.761023,1.047118 1.364889,1.258941 1.525705,1.308593 4.449279,1.37365 2.258244,0.05027 3.494172,0.283135 4.837176,0.911514 0.992175,0.464221 3.431106,1.252679 5.419816,1.752138 3.170313,0.796216 3.952543,0.861988 6.348303,0.533771 4.55285,-0.623731 6.54217,-1.618613 8.40425,-4.203054 1.34993,-1.873657 2.37539,-2.026981 4.41026,-0.659411 l 1.31534,0.883999 0.88513,-1.136839 c 0.9677,-1.242906 1.4901,-1.274065 4.27005,-0.254673 1.27293,0.466791 1.4934,0.455445 1.92515,-0.09909 0.63782,-0.819238 0.29304,-1.477322 -0.77399,-1.477322 -0.46862,0 -1.01953,-0.259187 -1.22422,-0.575981 -0.30877,-0.477828 -0.23444,-0.643235 0.4361,-0.970687 0.44456,-0.21709 1.26646,-0.394707 1.82643,-0.394707 0.85041,0 1.20824,-0.30311 2.172,-1.839879 2.21218,-3.527402 3.73226,-4.593273 7.04871,-4.942532 5.22314,-0.550053 6.45136,-0.856525 8.67862,-2.165575 0.69973,-0.411269 1.78801,-0.920445 2.41839,-1.131496 0.63039,-0.211051 1.96874,-0.665878 2.9741,-1.010728 1.72078,-0.590234 1.98662,-0.58348 4.5345,0.115291 3.24074,0.888781 3.47639,1.496146 1.01923,2.626996 -0.92799,0.427108 -2.17316,1.264901 -2.76703,1.861777 -0.6014,0.60443 -1.72886,1.237323 -2.5449,1.428526 -4.49895,1.054174 -6.18832,2.212125 -2.59639,1.779674 2.5516,-0.307204 3.05809,0.22972 1.93039,2.046366 -1.27383,2.052068 -1.55615,3.108909 -1.58982,5.951534 -0.0406,3.427887 -0.40442,4.575615 -1.543,4.868096 -0.8007,0.205687 -1.20266,0.685354 -2.35035,2.804703 -0.24852,0.4589 -0.97196,1.034509 -1.60763,1.27912 -0.63568,0.244625 -1.42136,0.87841 -1.74594,1.408411 -0.86225,1.407941 -3.35959,2.441817 -5.81982,2.409352 -1.13723,-0.01495 -2.32753,-0.205898 -2.64513,-0.424202 -0.4722,-0.324587 -0.57742,-0.26526 -0.57742,0.32562 0,0.961089 -1.14213,2.286576 -2.26726,2.631257 -1.10977,0.339971 -3.32224,2.365253 -5.3359,4.884434 -0.8284,1.036341 -1.63771,1.884259 -1.79851,1.884259 -0.16079,0 -1.34202,0.878628 -2.62496,1.95251 -2.18354,1.827725 -2.26501,1.943937 -1.27458,1.818423 1.34913,-0.170969 2.25688,-0.796806 3.83017,-2.640624 0.90294,-1.058211 1.88932,-1.715635 3.47645,-2.317089 3.19562,-1.210987 6.11239,-2.559292 7.49167,-3.463076 0.65974,-0.432303 1.44544,-0.786 1.74602,-0.786 0.30055,0 1.02014,-0.409647 1.59911,-0.910328 0.96313,-0.832907 3.09235,-1.802948 5.2206,-2.378403 1.08581,-0.29359 3.31436,0.466033 3.16224,1.077877 -0.0634,0.254988 -0.76146,1.075153 -1.55128,1.822579 -1.50996,1.428948 -1.56685,1.709127 -0.92247,4.543375 0.1416,0.622819 -0.0151,1.104094 -0.57754,1.773587 -0.98163,1.168469 -5.19727,9.197838 -5.79691,11.041172 -0.36397,1.118858 -0.38446,1.639991 -0.10375,2.637113 0.51219,1.81924 0.14767,3.13601 -1.02153,3.69037 -1.45606,0.69036 -4.87417,1.51087 -5.76865,1.38476 l -0.77981,-0.10995 0.93486,1.12166 c 0.87945,1.05518 0.99959,1.09353 2.02632,0.64697 1.42925,-0.62161 4.28366,-0.46611 5.8061,0.31629 0.90134,0.46321 1.25309,0.89312 1.37586,1.68159 0.12551,0.80612 0.68178,1.45913 2.32747,2.73229 1.81201,1.40184 2.50552,1.71237 4.27864,1.91592 2.31193,0.26539 3.76666,1.00783 5.11029,2.60806 l 0.87168,1.03816 -0.63041,0.65569 c -0.34674,0.36063 -1.14856,0.76691 -1.78179,0.90285 -0.63326,0.13594 -1.29322,0.37831 -1.46661,0.5386 -0.78747,0.72807 -3.18186,4.93725 -3.33501,5.8627 -0.52264,3.158604 -1.69684,3.728604 -4.96809,2.411754 -2.68243,-1.07983 -3.33096,-1.01438 -5.98633,0.60408 l -2.3035,1.40398 0.85766,0.94754 c 0.7247,0.80065 1.10118,0.92439 2.42859,0.79818 0.864,-0.0822 1.69772,-0.24893 1.8527,-0.37059 0.32842,-0.25781 8.22623,0.37938 8.89737,0.71784 1.15874,0.58435 7.47101,0.83858 12.29132,0.49504 1.19029,-0.0849 2.25119,-0.0438 2.3575,0.0911 0.51501,0.65378 -0.27693,2.35358 -1.45902,3.13162 -1.56137,1.02773 -1.63828,1.04014 -8.0507,1.29922 -5.35005,0.21618 -7.63154,0.61492 -9.14458,1.59825 -1.0329,0.6713 -1.07399,1.00164 -0.0849,0.6828 1.0397,-0.33516 2.87693,1.13368 2.6727,2.13676 -0.097,0.47632 -1.63717,1.68959 -4.42903,3.48893 -3.23638,2.08581 -4.75957,3.32844 -6.24529,5.0949 -2.28922,2.72185 -3.85175,3.51165 -6.01105,3.03837 -3.64242,-0.79837 -3.98012,-0.80617 -6.17301,-0.1429 -2.04125,0.61743 -2.32976,0.62416 -3.2652,0.0762 -2.44207,-1.43044 -8.25431,-3.35935 -9.64166,-3.19976 -1.15233,0.13256 -0.90146,0.75898 0.45345,1.13225 0.66507,0.18321 1.72608,0.60679 2.35782,0.94127 0.96093,0.50878 1.13384,0.77158 1.05806,1.60825 -0.0672,0.7425 -0.28525,1.02639 -0.84632,1.10209 -1.43463,0.19361 -3.10052,0.93123 -3.68637,1.63224 -1.21764,1.45705 -3.82652,1.28025 -5.459911,-0.36999 -1.026942,-1.03753 -3.824853,-1.92961 -5.270752,-1.68052 -1.396546,0.24059 -2.121938,-0.013 -6.895136,-2.41087 -8.946516,-4.49431 -9.12336,-4.55851 -11.895145,-4.31853 -1.999181,0.17306 -2.674761,0.0915 -3.249734,-0.39239 -0.68897,-0.57981 -1.004819,-1.6864 -0.481353,-1.6864 0.134485,0 0.488585,-0.2292 0.786851,-0.50935 0.993484,-0.93303 -2.533808,-0.32209 -4.293934,0.74373 -1.424253,0.86244 -1.712674,0.91643 -2.626983,0.49178 -0.957114,-0.44453 -1.146716,-0.38395 -2.783459,0.88936 -0.966002,0.75151 -2.640598,1.77173 -3.721321,2.26716 -1.080709,0.49543 -2.177912,1.13287 -2.438226,1.41651 -0.260307,0.28365 -0.940495,0.62975 -1.511499,0.76912 -0.571025,0.13936 -1.174257,0.38396 -1.340518,0.54353 -0.166268,0.15961 -1.050503,0.411 -1.964958,0.5587 -0.914455,0.14769 -2.070757,0.42068 -2.569546,0.60664 -4.039039,1.50582 -5.680522,2.13844 -7.225765,2.7847 -1.936678,0.81001 -2.558126,0.49797 -1.943944,-0.97606 0.239234,-0.57413 0.217017,-0.70794 -0.09668,-0.58257 -0.22397,0.0895 -0.970536,1.23269 -1.65902,2.54039 -0.68849,1.3077 -1.654153,2.88282 -2.145903,3.50025 -0.491782,0.61745 -1.016764,1.37276 -1.166605,1.67849 -1.004553,2.04935 -6.901732,6.67879 -9.178623,7.20547 -0.588369,0.13609 -1.273834,0.36476 -1.523226,0.50815 -0.249405,0.14337 -0.742637,0.19843 -1.096053,0.12234 z m 8.524342,-9.61116 c 0.569874,-0.69029 1.036103,-1.61539 1.036103,-2.05577 0,-0.69634 -0.112666,-0.75915 -0.864756,-0.48211 -1.918909,0.70686 -2.460543,1.43574 -2.460543,3.31127 0,1.21298 0.900588,0.90874 2.289196,-0.77339 z m 94.14458,-12.1877 c 0,-0.45598 -0.88402,-0.88208 -1.2414,-0.59839 -0.15398,0.12223 -0.20169,0.38488 -0.10604,0.58369 0.22231,0.46193 1.34744,0.47423 1.34744,0.0146 z m 4.64285,-3.69519 c 0.50402,-0.52952 0.73317,-1.01173 0.54992,-1.15721 -0.1728,-0.13717 -0.39962,-0.0718 -0.50406,0.14522 -0.10445,0.21704 -0.58994,0.39462 -1.07894,0.39462 -0.83604,0 -1.1845,0.65593 -0.68752,1.29424 0.34921,0.44854 0.82906,0.25978 1.7206,-0.67687 z m -74.103791,-6.37368 c 0.16309,-0.20945 0.248488,-1.25495 0.189781,-2.32334 -0.0587,-1.06837 -0.0047,-1.86105 0.120551,-1.76152 0.125011,0.0995 0.35783,-0.25996 0.517357,-0.79892 0.178061,-0.6015 0.87746,-1.36223 1.811174,-1.96994 0.836617,-0.54452 1.567101,-0.94401 1.623288,-0.88776 0.05617,0.0562 0.839349,-0.31132 1.740283,-0.81681 3.950795,-2.21664 4.622022,-2.57382 4.787711,-2.54766 0.09665,0.0152 0.355484,-0.20316 0.575193,-0.48534 0.219676,-0.282204 0.57712,-0.513084 0.79429,-0.513084 0.217176,0 0.554478,-0.24702 0.749557,-0.54895 0.342719,-0.53037 2.881832,-2.24976 3.498062,-2.36876 1.209145,-0.23348 2.230868,-0.72658 2.09415,-1.01067 -0.0898,-0.18665 0.184469,-0.54286 0.609502,-0.7916 0.425072,-0.24874 0.772804,-0.60034 0.772804,-0.78134 0,-0.18101 0.544134,-0.60875 1.209198,-0.95053 0.665057,-0.34179 1.209205,-0.74921 1.209205,-0.9054 0,-0.15619 0.578151,-0.51342 1.284776,-0.79387 0.70662,-0.28044 1.488831,-0.7889 1.738229,-1.1299 0.249391,-0.341 0.589478,-0.62528 0.755746,-0.63171 0.166261,-0.006 1.458024,-0.74901 2.870578,-1.65017 1.412527,-0.90116 2.77832,-1.63847 3.03507,-1.63847 0.256744,0 1.251771,0.2626 2.211144,0.58357 2.00878,0.67203 2.657131,0.41208 3.366469,-1.34981 0.541428,-1.34476 0.208867,-2.91912 -0.694407,-3.28734 -1.035957,-0.42231 -1.529914,-1.54008 -1.728762,-3.912 -0.225034,-2.68428 -0.130928,-2.41971 -0.897989,-2.5246 -1.909387,-0.26111 -3.342283,0.54527 -3.000667,1.68868 0.08126,0.27204 -0.06488,1.1483 -0.324751,1.94723 -0.259914,0.79893 -0.392179,1.61963 -0.293958,1.82378 0.09825,0.20415 -0.03776,0.37118 -0.302148,0.37118 -0.264455,0 -0.566331,0.30577 -0.670861,0.67949 -0.394293,1.40963 -1.770849,2.56245 -7.637953,6.39658 -1.905008,1.24492 -3.552627,2.44842 -3.661405,2.67445 -0.108764,0.22604 -0.284704,0.39571 -0.390956,0.37707 -0.194713,-0.0342 -1.789556,0.95174 -4.576019,2.82885 -0.831318,0.56003 -1.664883,1.01896 -1.852338,1.01986 -0.18748,7e-4 -0.498397,0.24543 -0.690937,0.54342 -0.192566,0.29799 -0.83861,0.65951 -1.435681,0.80337 -1.048195,0.25257 -4.338314,2.12782 -5.046483,2.876324 -0.190206,0.20105 -1.568151,1.01444 -3.06206,1.80753 l -2.716223,1.442 -1.409389,-1.01758 c -1.969093,-1.42168 -2.775449,-1.33927 -3.557686,0.36358 -0.348942,0.75964 -0.634464,1.5444 -0.634464,1.74391 0,0.19953 0.748201,0.90511 1.662649,1.56798 0.914456,0.66285 1.731182,1.34764 1.814951,1.52173 0.236455,0.49139 0.239512,2.0128 0.0066,3.32069 -0.178845,1.00458 -0.103446,1.24939 0.489217,1.58905 0.739938,0.42408 2.533728,0.0867 3.047502,-0.57325 z m 36.457735,-2.5945 0.900827,-0.97355 -0.436101,-2.14504 c -0.382015,-1.87886 -0.381051,-2.21577 0.0076,-2.71506 0.24408,-0.31351 0.555542,-0.57554 0.692121,-0.58229 0.136578,-0.007 0.622405,-0.43517 1.079632,-0.95207 1.064157,-1.203 1.040398,-2.478574 -0.06708,-3.600604 -0.994175,-1.00723 -1.732757,-0.81391 -3.498188,0.91563 -1.057901,1.036374 -2.818677,1.358454 -3.546948,0.64879 -0.203362,-0.19813 -1.049891,-0.68159 -1.881222,-1.07434 -0.831332,-0.39276 -1.98762,-0.98008 -2.569547,-1.30517 -0.581933,-0.32508 -1.126067,-0.60858 -1.209204,-0.63 -0.08314,-0.0214 -0.938461,-0.42516 -1.90072,-0.89721 -2.205209,-1.0818 -3.095825,-1.0659 -4.54889,0.0812 -1.310896,1.03486 -1.261709,1.11404 1.381063,2.22294 1.041907,0.43718 2.612597,1.21492 3.490424,1.72829 0.877812,0.513394 1.788046,0.933434 2.02268,0.933434 0.23468,0 0.501435,0.15537 0.592782,0.34527 0.09139,0.18989 0.500106,0.45291 0.9083,0.5845 0.40816,0.13158 1.710354,0.79839 2.893739,1.48178 l 2.15162,1.24254 -0.07045,1.95864 c -0.03869,1.07726 0.09354,2.35177 0.293912,2.83226 0.513028,1.23021 2.127887,1.18151 3.313572,-0.0999 z m 31.970946,-8.21478 c 1.34744,-0.89815 1.56978,-1.875854 0.42766,-1.880744 -1.01123,-0.004 -3.35989,0.952074 -3.95369,1.609974 -0.26249,0.29083 -0.6706,0.53434 -0.90691,0.54113 -0.32651,0.009 -0.3042,0.13471 0.093,0.52211 0.67171,0.65522 2.73261,0.2789 4.33997,-0.79247 z M 71.226222,92.683346 c 0.658436,-0.43145 1.197139,-0.92302 1.197139,-1.09238 0,-0.16937 -0.986258,-0.80125 -2.19168,-1.40417 -1.205422,-0.60293 -2.871855,-1.48894 -3.70318,-1.96891 -0.831324,-0.47997 -2.531767,-1.44099 -3.778751,-2.13559 -4.742725,-2.64184 -5.441646,-3.1244 -5.487436,-3.78881 -0.0719,-1.04296 -0.137224,-1.36726 -0.511414,-2.53769 -0.192201,-0.60117 -0.349454,-1.25235 -0.349454,-1.44708 0,-0.19472 -0.344348,-0.64386 -0.765239,-0.99807 -0.579939,-0.48806 -0.993298,-0.56004 -1.706725,-0.29724 -1.587503,0.58477 -1.737058,1.39384 -0.719422,3.89168 l 0.889705,2.18371 -0.621015,0.62725 c -0.341537,0.345 -0.97386,0.97671 -1.405182,1.40381 -0.431321,0.42711 -0.824284,1.126 -0.873279,1.55311 -0.04899,0.4271 -0.189009,0.87256 -0.311169,0.9899 -0.353602,0.33974 0.627704,1.87046 1.622836,2.53142 1.1853,0.78725 2.363725,0.44009 3.450132,-1.0164 0.470137,-0.63027 1.070412,-1.14596 1.33395,-1.14596 0.263518,0 2.006519,0.68499 3.873349,1.52221 1.866796,0.83721 3.394164,1.42735 3.394164,1.31142 0,-0.11593 0.20505,0.008 0.455685,0.27495 0.496928,0.52972 3.990702,2.2744 4.619901,2.30705 0.214458,0.0111 0.928635,-0.33277 1.587085,-0.76421 z m 68.232208,-0.23683 c 0.96489,-0.33213 0.8436,-0.92011 -0.18981,-0.92011 -0.82631,0 -2.33787,-0.63964 -3.94069,-1.66757 -0.57546,-0.36905 -0.75645,-0.36538 -0.8565,0.0174 -0.0698,0.26694 -0.4723,0.48534 -0.89446,0.48534 -1.33659,0 -0.27759,0.987 1.64546,1.53362 0.95813,0.27234 1.87807,0.54907 2.04433,0.61494 0.5231,0.20728 1.48586,0.17933 2.19167,-0.0636 z m -6.52203,-5.03907 c 0.47709,-0.37871 -0.57854,-1.3169 -1.48176,-1.3169 -0.38972,0 -1.07264,-0.30576 -1.5176,-0.67948 -0.44493,-0.37371 -0.7167,-0.48701 -0.60385,-0.25178 0.12612,0.26297 -0.25677,0.60543 -0.99417,0.8892 -1.33457,0.51356 -1.55355,1.09501 -0.51914,1.37851 0.37409,0.10253 0.95224,0.26986 1.28477,0.37185 0.76437,0.23443 3.37993,-0.0327 3.83175,-0.3914 z m -58.710966,-1.34993 c 1.521258,-0.41904 2.030033,-1.02451 2.283958,-2.71807 0.06262,-0.41763 0.400861,-1.27703 0.751645,-1.90976 0.50331,-0.90782 0.651156,-1.80684 0.701214,-4.26305 0.0349,-1.71194 -0.0242,-3.11262 -0.131141,-3.11262 -0.486278,0 -0.929658,1.25943 -0.785162,2.23025 0.246081,1.65337 -0.504686,3.43172 -1.940162,4.59562 -0.817018,0.66243 -1.33607,0.88572 -1.408651,0.60601 -0.214477,-0.82649 -1.280914,-0.46939 -1.576082,0.52777 -0.158011,0.53387 -0.362058,0.97068 -0.453439,0.97068 -0.09136,0 -0.29542,-0.43681 -0.453458,-0.97068 -0.285515,-0.96456 -1.511499,-1.41193 -1.511499,-0.55157 0,0.69793 -1.912048,-0.0244 -2.495736,-0.94288 -0.291957,-0.45937 -0.682681,-1.58022 -0.868287,-2.4908 -0.350936,-1.72175 -2.090049,-4.1197 -2.32663,-3.20808 -0.0666,0.25654 0.03031,0.66083 0.215242,0.89841 0.184975,0.23758 0.336305,1.26195 0.336305,2.27638 0,1.09545 0.159619,1.97052 0.393056,2.15493 0.631413,0.49881 1.653157,2.57028 1.76821,3.58486 0.246347,2.17209 3.918694,3.30925 7.500617,2.3226 z m -5.208422,-6.40807 c 0.438933,-0.56378 0.503536,-0.56378 0.749198,0 0.295706,0.6787 1.308103,0.83344 1.592057,0.24334 0.112939,-0.23467 0.453544,-0.21344 0.915785,0.0571 0.856998,0.50152 1.802013,-0.20392 1.523232,-1.13707 -0.0987,-0.33035 -0.01296,-0.48832 0.212968,-0.39272 0.207929,0.088 0.421529,0.53937 0.474672,1.00313 0.122618,1.07022 0.473195,1.06708 1.25536,-0.0112 0.470078,-0.64806 0.607181,-1.31244 0.567541,-2.75039 -0.0458,-1.66369 0.05558,-2.00915 0.827941,-2.82019 0.484078,-0.508346 1.062761,-0.930553 1.285927,-0.938227 0.613098,-0.02106 1.723769,-1.294917 1.704909,-1.955339 -0.009,-0.320333 0.09232,-1.36677 0.225486,-2.32543 0.152088,-1.094762 0.117746,-2.177801 -0.09235,-2.91207 -0.612859,-2.141965 -0.648457,-3.588233 -0.114175,-4.635561 0.391208,-0.766847 0.480229,-1.605898 0.381595,-3.595633 -0.07618,-1.536958 -0.276221,-2.658548 -0.490519,-2.750284 -0.199008,-0.08521 -0.284951,-0.314723 -0.190958,-0.510033 0.09398,-0.195303 0.01875,-0.355108 -0.167118,-0.355108 -0.185879,0 -0.24985,-0.183142 -0.142143,-0.406978 0.237525,-0.49359 -1.8349,-3.087503 -2.466765,-3.087503 -0.247377,0 -0.377514,-0.150137 -0.289212,-0.333637 0.19123,-0.397417 -2.208778,-1.67912 -2.584963,-1.380489 -0.143326,0.113775 -0.260613,-0.06551 -0.260613,-0.398469 0,-0.332929 -0.170056,-0.627881 -0.377879,-0.655452 -2.419739,-0.320979 -3.352483,-0.23257 -5.214685,0.494229 -1.163847,0.454251 -2.352311,0.976957 -2.641004,1.161588 -0.288706,0.184624 -0.65337,0.33568 -0.810384,0.33568 -0.492514,0 -2.274804,1.67457 -3.031767,2.848522 -1.286584,1.995352 -2.204344,6.901291 -1.280701,6.846022 0.570479,-0.03412 1.264408,-1.158632 1.264408,-2.048901 0,-1.248592 1.081168,-2.777532 2.217453,-3.135786 0.471387,-0.148627 1.141683,-0.610763 1.489502,-1.026974 0.71778,-0.858899 0.965178,-0.762824 0.704445,0.273545 -0.202452,0.804781 -1.54529,1.726721 -2.109779,1.448501 -0.206141,-0.101601 -0.627331,0.173657 -0.935948,0.61169 -0.547072,0.776395 -0.546594,0.810594 0.01901,1.360303 0.522376,0.507674 0.528053,0.565126 0.05697,0.576241 -0.303145,0.0072 -0.603904,0.425015 -0.714942,0.99328 -0.10544,0.539515 -0.44812,1.157193 -0.761517,1.372625 -0.636471,0.437492 -0.796384,2.636011 -0.243408,3.34624 0.233676,0.300148 0.142947,0.936502 -0.319393,2.240048 -0.570645,1.608937 -0.607441,2.054856 -0.316075,3.832368 0.446192,2.72201 1.046646,3.567422 3.180883,4.478512 1.86653,0.79679 2.889989,2.19356 2.796821,3.81692 -0.0466,0.81186 0.910865,2.84061 1.340611,2.84061 0.159022,0 0.505271,-0.27764 0.769487,-0.61697 z M 68.79576,73.503791 c 0,-0.910806 1.105805,-4.778122 1.555481,-5.439872 0.319147,-0.469669 2.963574,3.241438 2.972375,4.171312 0.0033,0.387755 -0.140999,1.05939 -0.321506,1.492525 -0.326233,0.78301 -0.332316,0.78247 -1.060348,-0.096 l -0.7322,-0.8835 -1.206911,0.82742 -1.206891,0.82743 z m 6.197154,-5.662185 c -0.102762,-0.21355 -0.557569,-0.388275 -1.010709,-0.388275 -0.579965,0 -0.967125,-0.316128 -1.307691,-1.06776 -1.147108,-2.531686 1.266541,-5.423275 3.835616,-4.595092 1.968753,0.634662 2.6398,3.6592 1.217235,5.486357 -0.760366,0.976643 -2.375717,1.310273 -2.734451,0.56477 z m -9.818539,-0.821612 c -1.322383,-0.677659 -1.820022,-1.53594 -1.820022,-3.138973 0,-2.293484 1.021624,-3.416653 3.107737,-3.416653 1.7905,0 2.687897,0.815635 3.046525,2.768974 0.201873,1.09955 -0.301663,3.456961 -0.837953,3.922832 -0.46454,0.403589 -2.60573,0.320193 -3.496287,-0.13618 z m 47.774295,-5.099592 c 0.85765,-1.320487 0.72676,-2.340693 -0.19855,-1.547153 -0.32948,0.28256 -1.02773,1.778024 -1.02773,2.201109 0,0.524504 0.70506,0.148501 1.22628,-0.653956 z m 6.33682,-5.047581 0.63371,-0.873615 -0.69752,-0.25251 c -1.3593,-0.492059 -2.20943,-0.340855 -2.6,0.462438 -0.52346,1.076571 -0.22328,1.537309 1.00164,1.537309 0.67721,0 1.24484,-0.298343 1.66217,-0.873622 z M 75.740197,39.900717 c 0.50811,-0.412708 0.551693,-0.384996 -1.868644,-1.187881 -1.923588,-0.63811 -3.538487,-0.062 -3.559667,1.270006 -0.0066,0.42133 4.899893,0.347097 5.428311,-0.08212 z"
   id="path3344"
   inkscape:connector-curvature="0" /></svg>
